<?xml version="1.0" encoding="UTF-8" standalone="no"?>
<!-- Created with Inkscape (http://www.inkscape.org/) -->

<svg
   width="210mm"
   height="297mm"
   viewBox="0 0 210 297"
   version="1.1"
   id="svg20843"
   inkscape:version="1.2 (dc2aeda, 2022-05-15)"
   sodipodi:docname="Documents.svg"
   inkscape:dataloss="true"
   inkscape:export-filename="leaf2.svg"
   inkscape:export-xdpi="96"
   inkscape:export-ydpi="96"
   xmlns:inkscape="http://www.inkscape.org/namespaces/inkscape"
   xmlns:sodipodi="http://sodipodi.sourceforge.net/DTD/sodipodi-0.dtd"
   xmlns="http://www.w3.org/2000/svg"
   xmlns:svg="http://www.w3.org/2000/svg">
  <sodipodi:namedview
     id="namedview20845"
     pagecolor="#ffffff"
     bordercolor="#000000"
     borderopacity="0.25"
     inkscape:showpageshadow="2"
     inkscape:pageopacity="0.0"
     inkscape:pagecheckerboard="0"
     inkscape:deskcolor="#d1d1d1"
     inkscape:document-units="mm"
     showgrid="false"
     inkscape:zoom="1.754102"
     inkscape:cx="283.6209"
     inkscape:cy="303.00404"
     inkscape:window-width="1752"
     inkscape:window-height="933"
     inkscape:window-x="0"
     inkscape:window-y="25"
     inkscape:window-maximized="0"
     inkscape:current-layer="layer1">
    <inkscape:grid
       type="xygrid"
       id="grid29544" />
  </sodipodi:namedview>
  <defs
     id="defs20840">
    <inkscape:path-effect
       effect="bspline"
       id="path-effect29515"
       is_visible="true"
       lpeversion="1"
       weight="33.333333"
       steps="2"
       helper_size="0"
       apply_no_weight="true"
       apply_with_weight="true"
       only_selected="false" />
    <inkscape:path-effect
       effect="bspline"
       id="path-effect29511"
       is_visible="true"
       lpeversion="1"
       weight="33.333333"
       steps="2"
       helper_size="0"
       apply_no_weight="true"
       apply_with_weight="true"
       only_selected="false" />
    <inkscape:path-effect
       effect="bspline"
       id="path-effect29501"
       is_visible="true"
       lpeversion="1"
       weight="33.333333"
       steps="2"
       helper_size="0"
       apply_no_weight="true"
       apply_with_weight="true"
       only_selected="false" />
    <inkscape:path-effect
       effect="bspline"
       id="path-effect29497"
       is_visible="true"
       lpeversion="1"
       weight="33.333333"
       steps="2"
       helper_size="0"
       apply_no_weight="true"
       apply_with_weight="true"
       only_selected="false" />
    <inkscape:path-effect
       effect="bspline"
       id="path-effect29439"
       is_visible="true"
       lpeversion="1"
       weight="33.333333"
       steps="2"
       helper_size="0"
       apply_no_weight="true"
       apply_with_weight="true"
       only_selected="false" />
    <inkscape:path-effect
       effect="bspline"
       id="path-effect29435"
       is_visible="true"
       lpeversion="1"
       weight="33.333333"
       steps="2"
       helper_size="0"
       apply_no_weight="true"
       apply_with_weight="true"
       only_selected="false" />
    <inkscape:path-effect
       effect="bspline"
       id="path-effect29425"
       is_visible="true"
       lpeversion="1"
       weight="33.333333"
       steps="2"
       helper_size="0"
       apply_no_weight="true"
       apply_with_weight="true"
       only_selected="false" />
    <inkscape:path-effect
       effect="bspline"
       id="path-effect29421"
       is_visible="true"
       lpeversion="1"
       weight="33.333333"
       steps="2"
       helper_size="0"
       apply_no_weight="true"
       apply_with_weight="true"
       only_selected="false" />
    <inkscape:path-effect
       effect="bspline"
       id="path-effect29399"
       is_visible="true"
       lpeversion="1"
       weight="33.333333"
       steps="2"
       helper_size="0"
       apply_no_weight="true"
       apply_with_weight="true"
       only_selected="false" />
    <inkscape:path-effect
       effect="bspline"
       id="path-effect29395"
       is_visible="true"
       lpeversion="1"
       weight="33.333333"
       steps="2"
       helper_size="0"
       apply_no_weight="true"
       apply_with_weight="true"
       only_selected="false" />
    <inkscape:path-effect
       effect="bspline"
       id="path-effect29385"
       is_visible="true"
       lpeversion="1"
       weight="33.333333"
       steps="2"
       helper_size="0"
       apply_no_weight="true"
       apply_with_weight="true"
       only_selected="false" />
    <inkscape:path-effect
       effect="bspline"
       id="path-effect29381"
       is_visible="true"
       lpeversion="1"
       weight="33.333333"
       steps="2"
       helper_size="0"
       apply_no_weight="true"
       apply_with_weight="true"
       only_selected="false" />
    <inkscape:path-effect
       effect="bspline"
       id="path-effect29371"
       is_visible="true"
       lpeversion="1"
       weight="33.333333"
       steps="2"
       helper_size="0"
       apply_no_weight="true"
       apply_with_weight="true"
       only_selected="false" />
    <inkscape:path-effect
       effect="bspline"
       id="path-effect29367"
       is_visible="true"
       lpeversion="1"
       weight="33.333333"
       steps="2"
       helper_size="0"
       apply_no_weight="true"
       apply_with_weight="true"
       only_selected="false" />
    <inkscape:path-effect
       effect="bspline"
       id="path-effect29347"
       is_visible="true"
       lpeversion="1"
       weight="33.333333"
       steps="2"
       helper_size="0"
       apply_no_weight="true"
       apply_with_weight="true"
       only_selected="false" />
    <inkscape:path-effect
       effect="bspline"
       id="path-effect29343"
       is_visible="true"
       lpeversion="1"
       weight="33.333333"
       steps="2"
       helper_size="0"
       apply_no_weight="true"
       apply_with_weight="true"
       only_selected="false" />
  </defs>
  <g
     inkscape:label="Layer 1"
     inkscape:groupmode="layer"
     id="layer1"
     sodipodi:insensitive="true"
     style="display:inline">
    <g
       id="path21222"
       style="display:inline"
       transform="matrix(0.98726645,-0.02840577,0.02876024,0.99958634,-1.5630341,2.0653823)">
      <path
         style="color:#000000;fill:#89a02c;stroke-width:4.415;-inkscape-stroke:none"
         d="m 60.54235,97.825911 c 0.769049,-1.467041 1.454699,-3.065984 2.307145,-4.401121 3.648605,-5.714608 7.485848,-11.091588 11.180775,-16.72426 8.221492,-12.533113 -4.044461,5.185191 5.679123,-8.508832 0.542272,-0.7637 1.070155,-1.555057 1.597253,-2.347264 0.611564,-0.919158 0.137177,-0.444601 1.064835,-1.467041 0.110065,-0.121309 0.23663,-0.195604 0.354945,-0.293406 0.118317,-0.0978 0.236631,-0.195608 0.354945,-0.29341"
         id="path23162" />
      <path
         style="color:#000000;fill:#88aa00;fill-opacity:0;-inkscape-stroke:none"
         d="m 81.675781,62.089844 c -0.118348,0.09783 -0.237211,0.195218 -0.355469,0.292968 0.05441,-0.04497 -0.209424,0.09889 -0.583984,0.511719 -0.475452,0.524031 -0.695712,0.763212 -0.912109,1.126953 -0.216397,0.363742 -0.09845,0.21332 -0.355469,0.59961 -0.526134,0.790758 -1.04156,1.564813 -1.558594,2.292968 -1.714032,2.413925 -2.114348,2.958195 -2.68164,3.740235 -0.0076,0.01529 -0.06911,0.06851 -0.08594,0.08984 -0.196725,0.249356 -0.414692,0.551278 -0.630859,0.853515 -0.216167,0.302237 -0.409704,0.578276 -0.541016,0.775391 -0.03283,0.04928 -0.05877,0.08866 -0.103516,0.162109 -0.02237,0.03672 -0.04064,0.05151 -0.121093,0.220703 -0.02011,0.0423 -0.0452,0.096 -0.08203,0.197266 -0.02123,0.05838 -0.04602,0.206474 -0.07617,0.369141 -0.413582,0.641391 -0.746597,1.165349 -1.404297,2.167968 -3.663859,5.585311 -7.506917,10.969164 -11.195313,16.746094 -0.993707,1.556386 -1.687075,3.203729 -2.40039,4.564453 l 3.910156,2.050781 c 0.824781,-1.573355 1.501707,-3.124396 2.21289,-4.238281 3.608807,-5.652274 7.440028,-11.021149 11.166016,-16.701172 1.031305,-1.572155 1.741817,-2.673488 2.222656,-3.43164 0.480839,-0.758153 0.686656,-1.071806 0.892578,-1.482422 0.0024,-0.0048 0.0092,-0.03119 0.01172,-0.03516 0.610141,-0.843513 0.929096,-1.271583 2.50586,-3.492188 0.567509,-0.799243 1.106704,-1.610643 1.634765,-2.404297 0.354545,-0.532867 0.541442,-0.904683 0.472656,-0.789062 -0.06879,0.115621 -0.06353,0.08239 0.388672,-0.416016 -0.15443,0.170206 -0.164084,0.164407 0.126953,-0.07617 0.118377,-0.09785 0.23719,-0.195195 0.355469,-0.292969 z"
         id="path23164" />
    </g>
  </g>
  <g
     inkscape:groupmode="layer"
     id="layer8"
     inkscape:label="Layer 2"
     style="display:inline"
     sodipodi:insensitive="true">
    <g
       id="g29417"
       transform="matrix(-0.35703092,-1.0342363,0.9258402,-0.41325236,20.235784,143.40319)"
       inkscape:transform-center-x="0.72366454"
       inkscape:transform-center-y="-0.89236558">
      <path
         id="path29413"
         style="opacity:1;fill:#89a02c;stroke:#88aa00;stroke-width:4.415;stroke-dasharray:none;stroke-opacity:0"
         inkscape:path-effect="#path-effect29421"
         inkscape:original-d="m 27.559494,59.588098 c 1.206215,4.185618 2.412164,8.370974 3.617849,12.556063 -1.453996,3.511775 -2.908202,7.023148 -4.362698,10.534325"
         d="m 27.559494,59.588098 c 1.20604,4.185668 2.41199,8.371024 2.287762,12.219365 -0.124229,3.848341 -1.578433,7.359714 -3.032611,10.871023" />
      <path
         style="opacity:1;fill:#89a02c;stroke:#88aa00;stroke-width:4.415;stroke-dasharray:none;stroke-opacity:0"
         d="m 26.814645,83.423338 c -1.170369,-3.333779 -2.34085,-6.667875 -2.234511,-10.605066 0.106339,-3.937191 1.489606,-8.477145 2.198988,-10.800377 0.709381,-2.323233 0.74485,-2.429638 0.780372,-2.536205"
         id="path29415"
         inkscape:original-d="m 26.814645,83.423338 c -1.170217,-3.333832 -2.340698,-6.667929 -3.511443,-10.00229 1.383588,-4.539871 2.766855,-9.079825 4.149885,-13.620136 0.03573,-0.106145 0.0712,-0.21255 0.106407,-0.319222"
         inkscape:path-effect="#path-effect29425" />
    </g>
  </g>
  <g
     inkscape:groupmode="layer"
     id="layer9"
     inkscape:label="Layer 3"
     sodipodi:insensitive="true"
     style="display:inline">
    <g
       id="g29350"
       transform="rotate(-12.248249,72.66606,-99.705868)">
      <path
         id="path29345"
         style="opacity:1;fill:#89a02c;stroke:#88aa00;stroke-width:4.415;stroke-dasharray:none;stroke-opacity:0"
         inkscape:path-effect="#path-effect29347"
         inkscape:original-d="m 27.559494,59.588098 c 1.206215,4.185618 2.412164,8.370974 3.617849,12.556063 -1.453996,3.511775 -2.908202,7.023148 -4.362698,10.534325"
         d="m 27.559494,59.588098 c 1.20604,4.185668 2.41199,8.371024 2.287762,12.219365 -0.124229,3.848341 -1.578433,7.359714 -3.032611,10.871023" />
      <path
         style="opacity:1;fill:#89a02c;stroke:#88aa00;stroke-width:4.415;stroke-dasharray:none;stroke-opacity:0"
         d="m 26.814645,83.423338 c -1.170369,-3.333779 -2.34085,-6.667875 -2.234511,-10.605066 0.106339,-3.937191 1.489606,-8.477145 2.198988,-10.800377 0.709381,-2.323233 0.74485,-2.429638 0.780372,-2.536205"
         id="path29341"
         inkscape:original-d="m 26.814645,83.423338 c -1.170217,-3.333832 -2.340698,-6.667929 -3.511443,-10.00229 1.383588,-4.539871 2.766855,-9.079825 4.149885,-13.620136 0.03573,-0.106145 0.0712,-0.21255 0.106407,-0.319222"
         inkscape:path-effect="#path-effect29343" />
    </g>
  </g>
  <g
     inkscape:groupmode="layer"
     id="layer10"
     inkscape:label="Layer 4"
     sodipodi:insensitive="true"
     style="display:inline">
    <g
       id="g29445"
       transform="matrix(0.99919962,0.0965646,-0.1034494,0.93270054,-6.689889,-5.2785473)">
      <path
         id="path29427"
         style="fill:#89a02c;stroke:#88aa00;stroke-width:4.29075;stroke-dasharray:none;stroke-opacity:0"
         inkscape:path-effect="#path-effect29435"
         inkscape:original-d="m 85.906172,85.373336 c 2.967818,-3.145261 5.935548,-6.290175 8.903186,-9.434741 3.760229,-0.700126 7.520222,-1.399875 11.280192,-2.099293"
         d="m 85.906172,85.373336 c 2.967944,-3.145142 5.935674,-6.290056 9.299574,-8.212302 3.363901,-1.922245 7.123894,-2.621996 10.883804,-3.321732" />
      <path
         style="fill:#89a02c;stroke:#88aa00;stroke-width:4.29075;stroke-dasharray:none;stroke-opacity:0"
         d="m 106.72825,73.448346 c -2.25584,2.669974 -4.5119,5.340199 -7.94276,7.323134 -3.43086,1.982935 -8.036308,3.278335 -10.393839,3.940035 -2.35753,0.6617 -2.467041,0.689666 -2.576723,0.717676"
         id="path29429"
         inkscape:original-d="m 106.72825,73.448346 c -2.25596,2.669876 -4.51202,5.340098 -6.768161,8.010666 -4.605543,1.295105 -9.210991,2.590505 -13.816624,3.886279 -0.109422,0.02762 -0.218932,0.05559 -0.328537,0.0839"
         inkscape:path-effect="#path-effect29439" />
    </g>
  </g>
  <g
     inkscape:groupmode="layer"
     id="layer11"
     inkscape:label="Layer 5"
     sodipodi:insensitive="true"
     style="display:none">
    <g
       id="g29363"
       transform="matrix(0.84128753,-0.21502719,0.1826345,0.99050118,33.152919,4.560988)">
      <path
         id="path29359"
         style="opacity:1;fill:#89a02c;stroke:#88aa00;stroke-width:4.415;stroke-dasharray:none;stroke-opacity:0"
         inkscape:path-effect="#path-effect29367"
         inkscape:original-d="m 27.559494,59.588098 c 1.206215,4.185618 2.412164,8.370974 3.617849,12.556063 -1.453996,3.511775 -2.908202,7.023148 -4.362698,10.534325"
         d="m 27.559494,59.588098 c 1.20604,4.185668 2.41199,8.371024 2.287762,12.219365 -0.124229,3.848341 -1.578433,7.359714 -3.032611,10.871023" />
      <path
         style="opacity:1;fill:#89a02c;stroke:#88aa00;stroke-width:4.415;stroke-dasharray:none;stroke-opacity:0"
         d="m 26.814645,83.423338 c -1.170369,-3.333779 -2.34085,-6.667875 -2.234511,-10.605066 0.106339,-3.937191 1.489606,-8.477145 2.198988,-10.800377 0.709381,-2.323233 0.74485,-2.429638 0.780372,-2.536205"
         id="path29361"
         inkscape:original-d="m 26.814645,83.423338 c -1.170217,-3.333832 -2.340698,-6.667929 -3.511443,-10.00229 1.383588,-4.539871 2.766855,-9.079825 4.149885,-13.620136 0.03573,-0.106145 0.0712,-0.21255 0.106407,-0.319222"
         inkscape:path-effect="#path-effect29371" />
    </g>
  </g>
  <g
     inkscape:groupmode="layer"
     id="layer12"
     inkscape:label="Layer 6"
     sodipodi:insensitive="true"
     style="display:none">
    <g
       id="g29411"
       transform="matrix(0.89958193,0,0,0.92725261,14.203953,-4.5505513)">
      <path
         id="path29387"
         style="fill:#89a02c;stroke:#88aa00;stroke-width:3.86253;stroke-dasharray:none;stroke-opacity:0"
         d="m 85.128518,77.451734 c -2.773015,2.67997 -5.545805,5.359722 -8.474279,6.765344 -2.928474,1.405622 -6.012608,1.537323 -9.096671,1.669021"
         inkscape:original-d="m 85.128518,77.451734 c -2.772906,2.680083 -5.545696,5.359835 -8.318367,8.039254 -3.084372,0.132038 -6.168506,0.263737 -9.252583,0.395111"
         inkscape:path-effect="#path-effect29395" />
      <path
         style="fill:#89a02c;stroke:#88aa00;stroke-width:3.86253;stroke-dasharray:none;stroke-opacity:0"
         d="m 67.506317,85.915183 c 2.144133,-2.31456 4.288485,-4.629356 7.27819,-6.085262 2.989704,-1.455905 6.824553,-2.052685 8.78743,-2.356771 1.962877,-0.304086 2.053694,-0.315459 2.144668,-0.326852"
         id="path29389"
         inkscape:original-d="m 67.506317,85.915183 c 2.144234,-2.314466 4.288587,-4.629262 6.433056,-6.944389 3.834886,-0.596472 7.669735,-1.193252 11.504779,-1.790376 0.0907,-0.01105 0.181517,-0.02242 0.272453,-0.03412"
         inkscape:path-effect="#path-effect29399" />
    </g>
  </g>
  <g
     inkscape:groupmode="layer"
     id="layer13"
     inkscape:label="Layer 7"
     sodipodi:insensitive="true"
     style="display:none">
    <g
       id="g29377"
       transform="matrix(0.84799683,-0.13034846,0.13416041,0.78416364,41.706953,12.337233)">
      <path
         id="path29373"
         style="opacity:1;fill:#89a02c;stroke:#88aa00;stroke-width:4.415;stroke-dasharray:none;stroke-opacity:0"
         inkscape:path-effect="#path-effect29381"
         inkscape:original-d="m 27.559494,59.588098 c 1.206215,4.185618 2.412164,8.370974 3.617849,12.556063 -1.453996,3.511775 -2.908202,7.023148 -4.362698,10.534325"
         d="m 27.559494,59.588098 c 1.20604,4.185668 2.41199,8.371024 2.287762,12.219365 -0.124229,3.848341 -1.578433,7.359714 -3.032611,10.871023" />
      <path
         style="opacity:1;fill:#89a02c;stroke:#88aa00;stroke-width:4.415;stroke-dasharray:none;stroke-opacity:0"
         d="m 26.814645,83.423338 c -1.170369,-3.333779 -2.34085,-6.667875 -2.234511,-10.605066 0.106339,-3.937191 1.489606,-8.477145 2.198988,-10.800377 0.709381,-2.323233 0.74485,-2.429638 0.780372,-2.536205"
         id="path29375"
         inkscape:original-d="m 26.814645,83.423338 c -1.170217,-3.333832 -2.340698,-6.667929 -3.511443,-10.00229 1.383588,-4.539871 2.766855,-9.079825 4.149885,-13.620136 0.03573,-0.106145 0.0712,-0.21255 0.106407,-0.319222"
         inkscape:path-effect="#path-effect29385" />
    </g>
  </g>
  <g
     inkscape:groupmode="layer"
     id="layer14"
     inkscape:label="Layer 8"
     sodipodi:insensitive="true"
     style="display:none">
    <g
       id="g29507"
       transform="matrix(0.47793955,0.01155172,0.05114136,0.41651841,62.647378,32.256103)"
       style="display:inline">
      <path
         id="path29503"
         style="opacity:1;fill:#89a02c;stroke:#88aa00;stroke-width:4.415;stroke-dasharray:none;stroke-opacity:0"
         inkscape:path-effect="#path-effect29511"
         inkscape:original-d="m 27.559494,59.588098 c 1.206215,4.185618 2.412164,8.370974 3.617849,12.556063 -1.453996,3.511775 -2.908202,7.023148 -4.362698,10.534325"
         d="m 27.559494,59.588098 c 1.20604,4.185668 2.41199,8.371024 2.287762,12.219365 -0.124229,3.848341 -1.578433,7.359714 -3.032611,10.871023" />
      <path
         style="opacity:1;fill:#89a02c;stroke:#88aa00;stroke-width:4.415;stroke-dasharray:none;stroke-opacity:0"
         d="m 26.814645,83.423338 c -1.170369,-3.333779 -2.34085,-6.667875 -2.234511,-10.605066 0.106339,-3.937191 1.489606,-8.477145 2.198988,-10.800377 0.709381,-2.323233 0.74485,-2.429638 0.780372,-2.536205"
         id="path29505"
         inkscape:original-d="m 26.814645,83.423338 c -1.170217,-3.333832 -2.340698,-6.667929 -3.511443,-10.00229 1.383588,-4.539871 2.766855,-9.079825 4.149885,-13.620136 0.03573,-0.106145 0.0712,-0.21255 0.106407,-0.319222"
         inkscape:path-effect="#path-effect29515" />
    </g>
    <g
       id="g29493"
       transform="matrix(0.51653493,0.42740006,-0.34665849,0.45803227,94.590672,17.848499)"
       style="display:inline">
      <path
         id="path29489"
         style="opacity:1;fill:#89a02c;stroke:#88aa00;stroke-width:4.415;stroke-dasharray:none;stroke-opacity:0"
         inkscape:path-effect="#path-effect29497"
         inkscape:original-d="m 27.559494,59.588098 c 1.206215,4.185618 2.412164,8.370974 3.617849,12.556063 -1.453996,3.511775 -2.908202,7.023148 -4.362698,10.534325"
         d="m 27.559494,59.588098 c 1.20604,4.185668 2.41199,8.371024 2.287762,12.219365 -0.124229,3.848341 -1.578433,7.359714 -3.032611,10.871023" />
      <path
         style="opacity:1;fill:#89a02c;stroke:#88aa00;stroke-width:4.415;stroke-dasharray:none;stroke-opacity:0"
         d="m 26.814645,83.423338 c -1.170369,-3.333779 -2.34085,-6.667875 -2.234511,-10.605066 0.106339,-3.937191 1.489606,-8.477145 2.198988,-10.800377 0.709381,-2.323233 0.74485,-2.429638 0.780372,-2.536205"
         id="path29491"
         inkscape:original-d="m 26.814645,83.423338 c -1.170217,-3.333832 -2.340698,-6.667929 -3.511443,-10.00229 1.383588,-4.539871 2.766855,-9.079825 4.149885,-13.620136 0.03573,-0.106145 0.0712,-0.21255 0.106407,-0.319222"
         inkscape:path-effect="#path-effect29501" />
    </g>
  </g>
</svg>
