<?xml version="1.0" encoding="UTF-8" standalone="no"?>
<!-- Created with Inkscape (http://www.inkscape.org/) -->

<svg
   width="210mm"
   height="297mm"
   viewBox="0 0 210 297"
   version="1.1"
   id="svg42598"
   xmlns:inkscape="http://www.inkscape.org/namespaces/inkscape"
   xmlns:sodipodi="http://sodipodi.sourceforge.net/DTD/sodipodi-0.dtd"
   xmlns="http://www.w3.org/2000/svg"
   xmlns:svg="http://www.w3.org/2000/svg">
  <sodipodi:namedview
     id="namedview42600"
     pagecolor="#ffffff"
     bordercolor="#000000"
     borderopacity="0.25"
     inkscape:showpageshadow="2"
     inkscape:pageopacity="0.0"
     inkscape:pagecheckerboard="0"
     inkscape:deskcolor="#d1d1d1"
     inkscape:document-units="mm"
     showgrid="false" />
  <defs
     id="defs42595">
    <inkscape:path-effect
       effect="bspline"
       id="path-effect29497"
       is_visible="true"
       lpeversion="1"
       weight="33.333333"
       steps="2"
       helper_size="0"
       apply_no_weight="true"
       apply_with_weight="true"
       only_selected="false" />
    <inkscape:path-effect
       effect="bspline"
       id="path-effect29511"
       is_visible="true"
       lpeversion="1"
       weight="33.333333"
       steps="2"
       helper_size="0"
       apply_no_weight="true"
       apply_with_weight="true"
       only_selected="false" />
  </defs>
  <g
     inkscape:label="Layer 1"
     inkscape:groupmode="layer"
     id="layer1">
    <g
       id="g45670"
       transform="matrix(1.9342567,0,0,2.1038618,-7.817395,-135.76006)">
      <g
         id="g45658">
        <g
           id="g29493"
           transform="matrix(2.9118473,1.8725673,-1.9542077,2.0067762,131.73772,-67.170607)"
           style="display:inline;fill:#8aa8b7;fill-opacity:1">
          <path
             id="path29489"
             style="opacity:1;fill:#8aa8b7;fill-opacity:1;stroke:#88aa00;stroke-width:4.415;stroke-dasharray:none;stroke-opacity:0"
             inkscape:path-effect="#path-effect29497"
             inkscape:original-d="m 27.559494,59.588098 c 1.206215,4.185618 2.412164,8.370974 3.617849,12.556063 -1.453996,3.511775 -2.908202,7.023148 -4.362698,10.534325"
             d="m 27.559494,59.588098 c 1.20604,4.185668 2.41199,8.371024 2.287762,12.219365 -0.124229,3.848341 -1.578433,7.359714 -3.032611,10.871023" />
          <path
             id="path29491"
             style="opacity:1;fill:#8aa8b7;fill-opacity:1;stroke:#88aa00;stroke-width:4.415;stroke-dasharray:none;stroke-opacity:0"
             d="m 27.559508,59.481739 c -0.03552,0.106567 -0.07099,0.212928 -0.780371,2.536158 -0.70938,2.323229 -2.092708,6.863169 -2.199047,10.800356 -0.10634,3.937188 1.064162,7.271213 2.23453,10.604988 z" />
        </g>
        <g
           id="g29507"
           transform="matrix(2.6942747,0.05061154,0.2882977,1.8248916,-49.322043,-3.4676318)"
           style="display:inline;fill:#8aa8b7">
          <path
             id="path29503"
             style="opacity:1;fill:#8aa8b7;stroke:#88aa00;stroke-width:4.415;stroke-dasharray:none;stroke-opacity:0"
             inkscape:path-effect="#path-effect29511"
             inkscape:original-d="m 27.559494,59.588098 c 1.206215,4.185618 2.412164,8.370974 3.617849,12.556063 -1.453996,3.511775 -2.908202,7.023148 -4.362698,10.534325"
             d="m 27.559494,59.588098 c 1.20604,4.185668 2.41199,8.371024 2.287762,12.219365 -0.124229,3.848341 -1.578433,7.359714 -3.032611,10.871023" />
          <path
             id="path29505"
             style="opacity:1;fill:#8aa8b7;stroke:#88aa00;stroke-width:4.415;stroke-dasharray:none;stroke-opacity:0"
             d="m 27.559448,59.481584 c -0.03552,0.106567 -0.07085,0.213007 -0.780234,2.536236 -0.709381,2.32323 -2.092744,6.863228 -2.199083,10.800415 -0.106339,3.937187 1.064197,7.271467 2.234565,10.605242 z" />
        </g>
      </g>
      <g
         id="path21222-7"
         style="display:inline;fill:#8aa8b7"
         transform="matrix(2.6261897,0.06956182,-0.05618543,2.4859211,-159.75677,-24.117062)">
        <path
           id="path23162-9"
           style="color:#000000;fill:#8aa8b7;stroke-width:4.415"
           d="m 83.081451,63.790561 c -0.118314,0.0978 -0.23668,0.195677 -0.354997,0.293477 -0.118315,0.0978 -0.244937,0.17196 -0.355002,0.293269 -0.92765,1.022432 -0.453282,0.547904 -1.064838,1.467054 -0.52709,0.792199 -1.054903,1.583647 -1.597167,2.347339 -1.195564,1.683752 -2.052352,2.883275 -2.662001,3.731867 0.0086,0.0012 -0.0022,0.03173 -0.03152,0.09006 l 4e-6,2.07e-4 c -0.01234,0.05602 -0.04294,0.115919 -0.09622,0.175022 -0.02142,0.03715 -0.05197,0.08811 -0.07938,0.134223 -0.02974,0.140099 -0.06439,0.278926 -0.09652,0.418454 -0.10035,0.406847 -0.233835,0.802227 -0.379834,1.192821 z m -6.034005,8.133006 c -0.0042,-6.03e-4 -0.01379,0.0068 -0.02559,0.01776 l 5e-6,2.07e-4 c 3.13e-4,0.0056 4.37e-4,0.01126 3.64e-4,0.01704 0.0094,-0.0131 0.01569,-0.02175 0.02522,-0.035 z m -1.176403,1.945589 c -0.0056,0.0087 -0.01247,0.0194 -0.01809,0.02815 0.002,0.0011 0.0039,0.002 0.006,0.0032 0.004,-0.01045 0.0081,-0.02086 0.01212,-0.03131 z m -2.006784,3.794395 c -0.0354,0.06862 -0.0708,0.137228 -0.106182,0.205859 l 0.07606,-0.114797 c 0.01,-0.03037 0.02015,-0.06069 0.03013,-0.09106 z m -2.52074,3.546854 c -0.0093,0.02833 -0.01856,0.05666 -0.02789,0.08497 0.02081,-0.02862 0.04085,-0.05707 0.05526,-0.08449 -0.01087,4.74e-4 -0.01959,1.86e-4 -0.02736,-4.81e-4 z m -0.10924,0.32963 c -0.0324,0.09621 -0.06492,0.192377 -0.09792,0.288363 l 0.146199,-0.220907 c -0.01564,-0.02065 -0.03167,-0.04275 -0.04828,-0.06746 z m -2.727052,3.98397 c -0.04854,0.06104 -0.107933,0.121971 -0.179313,0.181505 0.06338,0.03078 0.116054,0.05735 0.165096,0.0829 0.0054,-0.08805 0.01017,-0.176218 0.01422,-0.264401 z m -4.130921,5.543453 c -0.008,0.01218 -0.01603,0.02425 -0.02401,0.03643 -0.0029,0.0091 -0.0056,0.01833 -0.0085,0.02747 0.0109,-0.02125 0.02163,-0.04262 0.03248,-0.0639 z m -3.384041,5.871163 c -0.148131,0.298702 -0.297171,0.595936 -0.449927,0.887334 l 0.57966,-0.875374 c -0.05126,-0.0016 -0.09398,-0.0056 -0.129733,-0.01196 z" />
        <path
           id="path23164-6"
           style="color:#000000;fill:#8aa8b7;fill-opacity:0"
           d="m 81.675718,62.089763 c -0.118348,0.09783 -0.237142,0.19533 -0.3554,0.293072 0.05441,-0.04497 -0.209346,0.09888 -0.583898,0.511709 -0.475452,0.524023 -0.695743,0.763112 -0.91214,1.126853 -0.216397,0.363734 -0.09851,0.213404 -0.35553,0.599694 -0.526126,0.79075 -1.041547,1.564896 -1.558581,2.293043 -1.714016,2.413901 -2.114406,2.958069 -2.681698,3.740109 -0.0076,0.01529 -0.06901,0.06859 -0.08584,0.08992 -0.196725,0.249348 -0.414728,0.551295 -0.630895,0.853524 -0.216167,0.302237 -0.409756,0.57823 -0.541068,0.775345 -0.03283,0.04928 -0.05883,0.08868 -0.103576,0.162131 -0.02237,0.03672 -0.04057,0.05142 -0.121018,0.220618 -0.02011,0.0423 -0.04514,0.09601 -0.08197,0.197281 -0.02123,0.05838 -0.04597,0.206573 -0.07612,0.36924 -0.413574,0.641383 -0.746736,1.165343 -1.404428,2.167954 -1.786462,2.723342 -3.615655,5.399151 -5.448617,8.095629 0.327539,-0.0013 0.512655,-0.01319 0.6337,0.06854 0.407444,-0.53472 0.807275,-1.078474 1.133097,-1.670397 0.226366,-0.411236 0.515694,-0.612793 0.7401,-0.623759 0.288531,-0.01409 0.469811,0.286663 0.272265,0.861305 -0.02705,0.07868 -0.04519,0.161503 -0.08114,0.236131 -0.06525,0.135491 -0.162088,0.303192 -0.262554,0.466338 0.185231,0.09829 0.268675,0.250945 0.314481,0.424831 0.192481,-0.529666 0.386306,-1.059029 0.572612,-1.591103 -0.01767,-0.140158 -0.03709,-0.310984 -0.02609,-0.31836 0.04644,-0.03117 0.09961,-0.04558 0.154868,-0.05485 0.150505,-0.440451 0.294819,-0.883089 0.427271,-1.3301 0.205294,-0.717115 0.373533,-1.442624 0.50219,-2.178669 0.09336,-0.534117 0.385269,-0.810593 0.637537,-0.818996 0.252268,-0.0084 0.465009,0.25126 0.400215,0.789957 -0.03648,0.303264 -0.08674,0.604032 -0.146169,0.902948 0.02433,-0.05453 0.04905,-0.108556 0.07567,-0.160519 0.06233,-0.190592 0.129255,-0.38217 0.180968,-0.52725 0.142712,-0.400372 0.291646,-0.785683 0.468272,-1.170351 0.02796,-0.03962 0.03965,-0.134744 0.08384,-0.118965 0.09145,0.03264 0.192432,0.07361 0.274403,0.13347 0.163249,-0.03438 0.232785,-0.02864 0.251004,-0.0037 0.05186,-0.09199 0.103525,-0.184096 0.155448,-0.276044 0.142047,-0.251545 0.284405,-0.502919 0.427399,-0.75387 0.103649,-0.181897 0.265558,-0.573605 0.527327,-0.608243 0.02679,-0.0035 0.05044,0.0059 0.07248,0.02167 0.04091,-0.08312 0.08199,-0.166252 0.122564,-0.249555 0.0095,-0.04379 0.07444,-0.290963 0.0854,-0.294456 0.02389,-0.0074 0.04495,-0.01329 0.06668,-0.01953 0.132067,-0.275241 0.262126,-0.551604 0.38918,-0.829508 l -4e-6,-2.07e-4 c 0.02497,-0.05463 0.05326,-0.09936 0.08329,-0.135372 -0.01119,-0.06836 0.008,-0.150713 0.06878,-0.233915 -0.01664,-0.0805 -0.0032,-0.184671 0.05745,-0.30386 0.03839,-0.07549 0.08097,-0.149429 0.107816,-0.230641 0.02492,-0.08315 0.06144,-0.159066 0.09844,-0.236616 0.03831,-0.0762 0.08016,-0.150773 0.125702,-0.222411 0.03802,-0.06513 0.06721,-0.134684 0.105726,-0.19961 0.07314,-0.120996 0.14766,-0.241313 0.235501,-0.351249 0.119548,-0.135591 0.252943,-0.253628 0.404605,-0.347665 0.05739,-0.366569 0.102725,-0.735331 0.157447,-1.102409 0.069,-0.434193 0.145381,-0.870475 0.315877,-1.275846 0.121029,-0.254605 0.260678,-0.498215 0.398708,-0.742882 0.0841,-0.149077 0.18852,-0.217355 0.279518,-0.22526 0.173723,-0.0151 0.298541,0.190271 0.13926,0.475674 -0.132561,0.237522 -0.270224,0.471905 -0.386629,0.718846 -0.145801,0.360901 -0.210696,0.747501 -0.271536,1.131794 -0.05753,0.389139 -0.105648,0.779913 -0.168043,1.168186 0.107478,0.0861 0.129726,0.273529 -0.05715,0.44687 -0.01054,0.0098 -0.02011,0.02091 -0.02941,0.03242 -0.0038,0.01873 -0.0072,0.03752 -0.01119,0.05623 -0.03012,0.142874 -0.06556,0.28437 -0.09831,0.426611 -0.181714,0.736716 -0.470525,1.436599 -0.749648,2.136535 -0.0044,0.08928 -0.01,0.178898 -0.02795,0.266448 -0.0048,0.02326 0.0013,0.05573 -0.01741,0.06909 -0.03721,0.02661 -0.07663,0.04936 -0.116952,0.07042 -0.01213,0.03022 -0.03885,0.09722 -0.04726,0.118149 -0.0039,0.03029 -0.0083,0.06069 -0.007,0.08584 0.0027,0.05468 -0.0022,0.109579 -0.0038,0.164328 -0.0036,0.122273 -0.0061,0.24157 -0.02827,0.361664 -0.06743,-0.0015 -0.135149,7.68e-4 -0.202827,0.0021 -0.0017,0.0043 -0.0059,0.01541 -0.0076,0.01996 0.03123,0.01724 0.06129,0.03659 0.08941,0.05882 0.02645,0.02091 -0.02695,0.06383 -0.04105,0.09552 -0.07749,0.174141 -0.08411,0.18517 -0.167803,0.360788 -0.04623,0.06639 -0.09543,0.154877 -0.162958,0.21015 -0.599736,1.541987 -1.165793,3.097801 -1.712759,4.66112 0.781498,-1.160419 1.561574,-2.328315 2.336948,-3.510321 1.031297,-1.572147 1.7419,-2.673522 2.222731,-3.431666 0.480839,-0.758145 0.686608,-1.071788 0.89253,-1.482396 0.0024,-0.0048 0.0093,-0.03128 0.01184,-0.03525 0.610141,-0.843505 0.929026,-1.271597 2.505774,-3.492178 0.567509,-0.799243 1.10666,-1.610663 1.634713,-2.404309 0.242353,-0.364247 0.398278,-0.639558 0.455837,-0.749054 0.02875,-0.03173 0.126029,-0.144258 0.301468,-0.33979 0.01225,-0.0079 0.08196,-0.06908 0.23103,-0.192307 0.118377,-0.09785 0.237121,-0.195298 0.3554,-0.293072 z M 75.984702,73.56206 c -0.0018,0.0026 -0.0037,0.0052 -0.0055,0.0078 -0.07026,0.08516 -0.145604,0.164552 -0.228519,0.236098 -0.01588,0.0137 -0.03159,0.0257 -0.04722,0.03687 0.0372,-0.0013 0.08353,0.01654 0.155305,0.0576 0.04299,-0.112441 0.08525,-0.225107 0.125976,-0.338414 z m -1.771561,2.050591 c -0.07158,0.149244 -0.01949,0.179331 0.06199,0.17496 0.0097,-0.01944 0.01933,-0.03894 0.02905,-0.0584 -0.03154,-0.03723 -0.05874,-0.08031 -0.09104,-0.116565 z m 0.555315,0.8195 c -0.09288,0.341254 -0.193003,0.680154 -0.320597,1.009272 -0.05515,0.164291 -0.108569,0.329283 -0.162393,0.494093 0.17325,-0.461974 0.349408,-0.922736 0.528277,-1.382401 -0.0171,-0.04005 -0.03214,-0.08113 -0.04529,-0.120964 z m -1.494086,0.589354 c -0.01595,0.01501 -0.03259,0.02966 -0.04905,0.04336 4.58e-4,0.001 0.001,0.002 0.0014,0.0031 0.0034,0.0081 0.0058,0.01618 0.0076,0.02432 0.0133,-0.02361 0.0267,-0.04715 0.04001,-0.07076 z m 0.589889,0.642046 c -0.103278,0.200213 -0.206469,0.40048 -0.30966,0.600697 -0.08789,0.168454 -0.172002,0.334995 -0.257718,0.499255 0.01012,0.0015 0.0203,0.0031 0.03039,0.0041 0.07582,0.05692 0.151562,0.113833 0.227384,0.170748 0.0108,-0.0039 0.03852,-0.0015 0.03241,-0.01172 -0.03178,-0.05284 -0.125068,-0.07408 -0.121579,-0.136706 0.0078,-0.140445 0.104281,-0.259397 0.151015,-0.391292 0.08632,-0.243626 0.167017,-0.489365 0.247752,-0.735124 z m 8.33e-4,1.409379 c -0.08362,0.140362 -0.201757,0.251775 -0.417521,0.341791 -0.136846,0.05709 -0.196893,-0.07376 -0.244746,-0.154463 -0.02026,-0.07912 -0.01973,-0.163224 -0.165773,-0.02259 -7.89e-4,7.59e-4 -0.0015,0.0016 -0.0023,0.0024 -0.06458,0.109493 -0.132285,0.21778 -0.205172,0.324831 -0.06441,0.0946 -0.132578,0.187427 -0.207861,0.27273 -0.07411,0.139137 -0.142528,0.281794 -0.212313,0.423357 -0.04066,0.08247 -0.06752,0.174933 -0.09784,0.264662 0.02776,0.15253 -0.02328,0.314058 -0.08302,0.451752 -0.02892,0.06667 -0.05098,0.145874 -0.10754,0.188434 -0.06414,0.04828 -0.14379,0.06496 -0.220889,0.08684 -0.03126,0.06247 -0.06284,0.124757 -0.09797,0.184841 -0.01361,0.02327 -0.02511,0.05526 -0.04061,0.0793 -0.07201,0.203416 -0.209113,0.496436 -0.527248,0.02328 -0.327454,0.973173 -0.6893,1.933818 -1.034179,2.900128 -0.249813,0.695232 -0.498748,1.390846 -0.730519,2.092553 -0.02289,0.205556 -0.05052,0.410571 -0.08366,0.614745 -0.09897,0.333886 -0.227646,0.629277 -0.380036,0.898267 -0.01017,0.03598 -0.02062,0.07187 -0.03055,0.107911 1.166379,-1.725931 2.342054,-3.446766 3.517081,-5.18037 0.445172,-1.304924 0.900256,-2.606109 1.372678,-3.900339 z m -2.521769,2.13748 c -0.0092,0.02823 -0.01822,0.05655 -0.02751,0.08475 0.02075,-0.02854 0.0407,-0.05693 0.05506,-0.08428 -0.01096,4.78e-4 -0.01974,2.07e-4 -0.02756,-4.76e-4 z m -5.112741,3.119025 c -1.75846,2.590584 -3.517336,5.205215 -5.242303,7.906925 -0.993699,1.556378 -1.68708,3.203651 -2.400387,4.564367 l 3.91008,2.050838 c 0.824781,-1.573339 1.501775,-3.124491 2.21295,-4.238368 0.92984,-1.456353 1.874661,-2.893626 2.828427,-4.322527 -0.0078,-0.03717 -0.01322,-0.07673 -0.0167,-0.11823 -0.04813,0.06599 -0.09584,0.132237 -0.144328,0.197987 -0.400302,0.542795 -0.906392,1.219466 -1.343927,1.73076 -0.183675,0.214635 -0.383266,0.413441 -0.574888,0.620175 -0.360206,0.352085 -0.700101,0.713022 -1.105545,1.008371 -0.179638,0.130855 -0.345673,0.365305 -0.563096,0.352724 -0.2214,-0.01281 -0.381388,-0.0478 -0.497458,-0.101867 2.28e-4,0.03015 -1.01e-4,0.03349 4.91e-4,0.07815 -0.04535,0.17835 -0.09482,0.302645 -0.158991,0.413965 -0.03063,0.07203 -0.07382,0.153483 -0.131878,0.24649 -0.0273,0.04875 -0.147644,0.257847 -0.175044,0.325859 -0.110544,0.274422 -0.162631,0.576333 -0.327256,0.826736 -0.156293,0.271786 -0.320548,0.532815 -0.509059,0.781516 -0.07134,0.09411 -0.106745,0.271631 -0.220564,0.276827 -1.020522,0.04739 -0.95011,0.06332 -0.977161,-0.449941 0.02286,-0.183236 0.0497,-0.366675 0.05609,-0.55161 0.0013,-0.03866 -2.43e-4,-0.08734 -8.47e-4,-0.131562 -0.01993,-0.0089 -0.03826,-0.02152 -0.05398,-0.03986 -0.458555,-0.534784 -0.265147,-0.748646 -0.0038,-1.107666 0.661904,-0.896172 1.266187,-1.838683 1.951543,-2.715843 0.131671,-0.158224 0.269282,-0.345226 0.433918,-0.476746 0.03362,-0.160465 0.07368,-0.31976 0.12281,-0.477186 0.336438,-1.109141 0.76464,-2.186513 1.297366,-3.208082 0.432943,-0.774558 0.891457,-1.532773 1.389043,-2.261691 0.04089,-0.350911 0.119998,-0.695742 0.207447,-1.037079 0.0097,-0.03774 0.02239,-0.08788 0.03707,-0.143433 z m 2.299135,0.295915 c -0.02426,0.02537 -0.04927,0.04989 -0.07396,0.07483 0.02607,0.01363 0.05018,0.02958 0.07225,0.04766 4.73e-4,-0.04082 0.0014,-0.08168 0.0017,-0.122487 z m -0.0223,0.898234 c -0.04859,0.06116 -0.10799,0.122283 -0.179501,0.181926 0.06347,0.03082 0.116203,0.05752 0.165297,0.0831 0.0055,-0.08828 0.01018,-0.176613 0.0142,-0.265024 z m -0.78642,2.524006 c -0.411479,0.175023 -0.541503,0.242363 -0.885243,0.415787 -0.130846,0.259511 -0.261257,0.519275 -0.39124,0.779259 0.04409,-0.03636 0.03557,-0.02926 0.106741,-0.0878 0.404534,-0.350817 0.822331,-0.699409 1.169742,-1.107246 z m -2.53846,0.906695 c -0.327255,0.7042 -0.605769,1.432396 -0.838707,2.177069 0.362596,-0.706695 0.696702,-1.430332 1.053991,-2.139647 -0.07615,-0.0041 -0.148482,-0.01567 -0.215284,-0.03742 z m 0.513197,1.812458 c -0.03146,0.06446 -0.06307,0.128903 -0.09464,0.193271 0.04569,-0.0574 0.09085,-0.113556 0.137384,-0.173056 -0.01482,-0.0059 -0.02897,-0.01287 -0.04274,-0.02021 z m -4.473377,5.015883 c -0.02036,1.5e-5 -0.04165,0.0021 -0.06306,0.0047 0.02367,0.0033 0.04723,0.0062 0.07102,0.0084 0.0079,7.04e-4 0.02891,-0.01144 0.02099,-0.01202 -0.0095,-8.41e-4 -0.01911,-0.0011 -0.02895,-0.0011 z" />
      </g>
    </g>
  </g>
</svg>
